<svg width="32" height="32" viewBox="0 0 32 32" fill="none" xmlns="http://www.w3.org/2000/svg">
<circle cx="16.1251" cy="15.7152" r="15.7152" fill="#00B533"/>
<path d="M15.9662 11.5659C15.1931 11.5659 14.4374 11.8128 13.7946 12.2753C13.1518 12.7378 12.6508 13.3952 12.355 14.1644C12.0591 14.9336 11.9817 15.78 12.1325 16.5965C12.2834 17.4131 12.6556 18.1631 13.2023 18.7518C13.7489 19.3405 14.4454 19.7414 15.2036 19.9038C15.9619 20.0663 16.7478 19.9829 17.462 19.6643C18.1762 19.3457 18.7867 18.8062 19.2162 18.1139C19.6457 17.4217 19.8749 16.6078 19.8749 15.7753C19.8749 14.6589 19.4631 13.5882 18.7301 12.7988C17.9971 12.0094 17.0029 11.5659 15.9662 11.5659ZM15.9662 18.301C15.5023 18.301 15.0489 18.1528 14.6632 17.8753C14.2776 17.5978 13.977 17.2033 13.7995 16.7418C13.622 16.2803 13.5755 15.7725 13.666 15.2826C13.7565 14.7926 13.9799 14.3426 14.3078 13.9894C14.6358 13.6362 15.0537 13.3956 15.5087 13.2982C15.9636 13.2007 16.4351 13.2507 16.8637 13.4419C17.2922 13.6331 17.6585 13.9568 17.9162 14.3721C18.1739 14.7875 18.3114 15.2758 18.3114 15.7753C18.3114 16.4451 18.0644 17.0876 17.6245 17.5612C17.1847 18.0349 16.5882 18.301 15.9662 18.301ZM19.8749 10.724C19.7203 10.724 19.5692 10.7734 19.4406 10.8659C19.3121 10.9584 19.2119 11.0899 19.1527 11.2437C19.0935 11.3975 19.078 11.5668 19.1082 11.7301C19.1384 11.8934 19.2128 12.0434 19.3222 12.1612C19.4315 12.2789 19.5708 12.3591 19.7224 12.3916C19.8741 12.4241 20.0313 12.4074 20.1741 12.3437C20.317 12.28 20.439 12.172 20.5249 12.0336C20.6108 11.8952 20.6567 11.7324 20.6567 11.5659C20.6567 11.3426 20.5743 11.1285 20.4277 10.9706C20.2811 10.8127 20.0823 10.724 19.8749 10.724ZM23.7368 12.6098C23.7238 11.8904 23.5969 11.1786 23.3615 10.5051C23.1433 9.89226 22.8078 9.33571 22.3768 8.87158C21.9458 8.40746 21.429 8.04613 20.8599 7.81106C20.2346 7.55757 19.5736 7.42091 18.9056 7.40696C18.1473 7.35645 17.8971 7.35645 15.9662 7.35645C14.0353 7.35645 13.7851 7.35645 13.0268 7.40696C12.3587 7.42091 11.6978 7.55757 11.0724 7.81106C10.5034 8.04613 9.98657 8.40746 9.5556 8.87158C9.12462 9.33571 8.7891 9.89226 8.57083 10.5051C8.33544 11.1786 8.20854 11.8904 8.19559 12.6098C8.14868 13.4349 8.14868 13.7043 8.14868 15.7753C8.14868 17.8463 8.14868 18.1157 8.19559 18.9408C8.20854 19.6602 8.33544 20.372 8.57083 21.0455C8.7891 21.6583 9.12462 22.2149 9.5556 22.679C9.98657 23.1431 10.5034 23.5045 11.0724 23.7395C11.6978 23.993 12.3587 24.1297 13.0268 24.1436C13.8086 24.1436 14.0353 24.1942 15.9662 24.1942C17.8971 24.1942 18.1473 24.1942 18.9056 24.1436C19.5736 24.1297 20.2346 23.993 20.8599 23.7395C21.429 23.5045 21.9458 23.1431 22.3768 22.679C22.8078 22.2149 23.1433 21.6583 23.3615 21.0455C23.5969 20.372 23.7238 19.6602 23.7368 18.9408C23.7368 18.0989 23.7837 17.8463 23.7837 15.7753C23.7837 13.7043 23.7837 13.4349 23.7368 12.6098ZM22.1733 18.865C22.1596 19.3993 22.0672 19.9278 21.8997 20.4309C21.7611 20.8286 21.5422 21.1881 21.2586 21.4833C20.9861 21.7888 20.6517 22.0222 20.2815 22.1652C19.8132 22.353 19.3191 22.4555 18.8196 22.4683C18.0847 22.4683 17.858 22.5104 15.9584 22.5104C14.0587 22.5104 13.8398 22.5104 13.105 22.5104C12.6062 22.4965 12.1127 22.397 11.6431 22.2157C11.2739 22.0665 10.9401 21.8307 10.6659 21.5254C10.3823 21.2319 10.1655 20.8717 10.0327 20.473C9.859 19.9714 9.76389 19.4423 9.75127 18.9071C9.75127 18.0652 9.75127 17.8548 9.75127 15.8174C9.75127 13.78 9.75127 13.5359 9.75127 12.7277C9.76475 12.1899 9.85981 11.6581 10.0327 11.1533C10.1676 10.7582 10.3841 10.4012 10.6659 10.1094C10.9384 9.80394 11.2729 9.57054 11.6431 9.42748C12.1114 9.23966 12.6054 9.13722 13.105 9.1244C13.8398 9.04022 14.0665 9.04022 15.9662 9.04022C17.8658 9.04022 18.0926 9.04022 18.8274 9.04022C19.3294 9.05396 19.8259 9.15635 20.2971 9.34329C20.664 9.48857 20.9955 9.72175 21.2665 10.0252C21.5501 10.3187 21.7668 10.6789 21.8997 11.0776C22.091 11.5899 22.1995 12.1338 22.2202 12.6856C22.2202 13.5275 22.2593 13.7379 22.2593 15.7753C22.2593 17.8127 22.2202 18.0568 22.2202 18.865H22.1733Z" fill="white"/>
</svg>
