<svg width="33" height="32" viewBox="0 0 33 32" fill="none" xmlns="http://www.w3.org/2000/svg">
<ellipse cx="16.0577" cy="15.6754" rx="16.0577" ry="15.6754" fill="#00B533"/>
<path d="M22.4993 8.76451L7.18461 14.4634C6.15178 14.8236 6.13286 15.5036 6.96364 15.7212L10.7378 17.0902L12.0946 21.7947C12.2669 22.2856 12.1686 22.4774 12.6331 22.4903C13.0048 22.5006 13.196 22.3115 13.3872 22.1224C13.4828 22.0278 14.3434 21.1767 15.2995 20.2311L19.1179 23.3513C19.8504 23.7606 20.3203 23.5793 20.5305 22.7101L23.4862 10.0559C23.7946 8.99501 23.1605 8.39401 22.4993 8.76451ZM20.4671 11.6247L13.0281 18.3206L12.6602 21.5188L11.3034 16.8142L20.0079 11.4175C20.3877 11.1364 20.7539 11.341 20.4671 11.6247Z" fill="white"/>
</svg>
