<svg width="32" height="32" viewBox="0 0 32 32" fill="none" xmlns="http://www.w3.org/2000/svg">
<circle cx="16.2848" cy="15.7152" r="15.7152" fill="#00B533"/>
<path fill-rule="evenodd" clip-rule="evenodd" d="M14.3983 18.0692L14.3977 12.9872L19.2504 15.537L14.3983 18.0692ZM25.0532 12.1065C25.0532 12.1065 24.8775 10.8602 24.3393 10.3113C23.6562 9.59067 22.8907 9.58727 22.5399 9.54544C20.0266 9.3623 16.2566 9.3623 16.2566 9.3623H16.2488C16.2488 9.3623 12.4788 9.3623 9.9655 9.54544C9.61415 9.58727 8.84916 9.59067 8.16554 10.3113C7.6273 10.8602 7.45218 12.1065 7.45218 12.1065C7.45218 12.1065 7.27258 13.5705 7.27258 15.0339V16.4063C7.27258 17.8703 7.45218 19.3337 7.45218 19.3337C7.45218 19.3337 7.6273 20.58 8.16554 21.1289C8.84916 21.8496 9.7466 21.8269 10.1462 21.9021C11.583 22.0412 16.2527 22.0841 16.2527 22.0841C16.2527 22.0841 20.0266 22.0785 22.5399 21.8953C22.8907 21.8529 23.6562 21.8496 24.3393 21.1289C24.8775 20.58 25.0532 19.3337 25.0532 19.3337C25.0532 19.3337 25.2328 17.8703 25.2328 16.4063V15.0339C25.2328 13.5705 25.0532 12.1065 25.0532 12.1065Z" fill="white"/>
</svg>
